# xmcd
#
# Track frame offsets:
# 150
# 11010
# 33948
# 45588
# 58438
# 68210
# 78094
# 88562
# 99812
# 112943
# 124959
# 137921
# 147554
# 165226
# 175429
# 185703
# 201717
# 211574
# 224356
# 233167
# 246088
# 254393
# 266991
# 277110
# 297051
# 310054
#
# Disc length: 4239 seconds
#
# Revision: 0
# Processed by: cddbd v1.4PL0 Copyright (c) Steve Scherf et al.
# Submitted via: Axialis_AX_CDPlayer 2.6
#
DISCID=88108d1a
DTITLE=Various Artist - Truckin' On, CD 1
DYEAR=1900
DGENRE=
TTITLE0=Six days on the road - Dave Dudley
TTITLE1=Teddy bear - Red Sovine
TTITLE2=Give me fourty acres - Wills Brothers
TTITLE3=Wolverton mountain - Claude King
TTITLE4=A dime at a time - Del Reeves
TTITLE5=King of the open road 7 Red Sovine
TTITLE6=Bridge washed out - Warner Mack
TTITLE7=Kansas City - Wilbert Harrison
TTITLE8=Truck driver's prayer - Red Sovine
TTITLE9=How far to Little Rock - Stanley Brothers
TTITLE10=Girl on the billboard - Del Reeves
TTITLE11=Truck driver's queen - Moore and Napier
TTITLE12=Gear jammer and the hobo - Red Sovine 6 Johnny Bond
TTITLE13=Looking at the world through a windshield - Del Reeves
TTITLE14=Moving on - Mike Lunsford
TTITLE15=18 wheels humming home - Marc Wiseman
TTITLE16=Tombstone every mile - Charlie Moore
TTITLE17=How far them truck can go - Claude Grey
TTITLE18=Truck driving son of a gun - Red Sovine
TTITLE19=Cross the brazos at Wace - Billy Walker
TTITLE20=One is a loneley number - Geroge Jones
TTITLE21=Passing Zone blues - Coleman Wilson
TTITLE22=40 miles of bad road - Duanne Eddy
TTITLE23=Little Joe - Red Sovine
TTITLE24=Tie a yellow ribbon - Johnny Carver
TTITLE25=Wheels a turning - Wills Brothers
EXTD=
EXTT0=
EXTT1=
EXTT2=
EXTT3=
EXTT4=
EXTT5=
EXTT6=
EXTT7=
EXTT8=
EXTT9=
EXTT10=
EXTT11=
EXTT12=
EXTT13=
EXTT14=
EXTT15=
EXTT16=
EXTT17=
EXTT18=
EXTT19=
EXTT20=
EXTT21=
EXTT22=
EXTT23=
EXTT24=
EXTT25=
PLAYORDER=
